<?xml version="1.0" encoding="UTF-8"?>
<svg version="1.1" xmlns="http://www.w3.org/2000/svg" width="390" height="450">
<path d="M0 0 C1.64162109 -0.02416992 1.64162109 -0.02416992 3.31640625 -0.04882812 C14.6540782 -0.05553681 24.57530756 2.07757684 34.125 8.3125 C35.011875 8.869375 35.89875 9.42625 36.8125 10 C44.20981675 17.39731675 48.74465933 28.42491096 49.24804783 38.8642931 C49.24712604 39.77410277 49.24620424 40.68391245 49.24525452 41.62129211 C49.24731651 43.19663475 49.24731651 43.19663475 49.24942017 44.80380249 C49.24402725 46.51607529 49.24402725 46.51607529 49.23852539 48.26293945 C49.23867142 49.47311234 49.23881744 50.68328522 49.2389679 51.93013 C49.23839145 55.23967032 49.23338317 58.54914793 49.22639394 61.85867715 C49.22013404 65.32067444 49.21955451 68.78267261 49.21836853 72.24467468 C49.21526299 78.79647015 49.20706007 85.34824888 49.19701904 91.90003699 C49.18583378 99.36071 49.18034137 106.82138382 49.17532361 114.28206313 C49.16487681 129.62555203 49.1470905 144.9690232 49.125 160.3125 C43.185 160.3125 37.245 160.3125 31.125 160.3125 C31.11913376 158.89841858 31.11326752 157.48433716 31.10722351 156.02740479 C31.04988759 142.66877333 30.9772434 129.31029757 30.88928509 115.95183182 C30.84445779 109.08492831 30.80501366 102.21807515 30.77856445 95.35107422 C30.75300043 88.7179216 30.71200864 82.08497717 30.66181374 75.4519577 C30.64519257 72.92759771 30.63364884 70.40319876 30.62738609 67.87879181 C30.61769345 64.32943868 30.58957164 60.78065622 30.55737305 57.23144531 C30.55880814 56.19925369 30.56024323 55.16706207 30.5617218 54.10359192 C30.41797981 42.82123138 28.56538501 32.88241799 20.5 24.625 C12.38329728 18.38138252 1.90048386 18.51364325 -7.875 19.3125 C-11.35322296 20.01717894 -14.57708151 21.01235906 -17.875 22.3125 C-18.90625 22.704375 -19.9375 23.09625 -21 23.5 C-21.61875 23.768125 -22.2375 24.03625 -22.875 24.3125 C-22.875 24.9725 -22.875 25.6325 -22.875 26.3125 C-23.535 26.3125 -24.195 26.3125 -24.875 26.3125 C-25.143125 26.993125 -25.41125 27.67375 -25.6875 28.375 C-26.56204293 30.53834305 -27.48627679 32.68176002 -28.4375 34.8125 C-30.46187013 39.74140118 -31.00005811 43.95607182 -31.00922108 49.26380157 C-31.01367892 50.46402781 -31.01813676 51.66425405 -31.02272969 52.90085077 C-31.02254533 54.21590522 -31.02236097 55.53095967 -31.02217102 56.88586426 C-31.02547177 58.29984688 -31.02919778 59.71382856 -31.0333125 61.12780905 C-31.04331675 65.01355715 -31.04704676 68.89928981 -31.04970181 72.78504896 C-31.05360957 76.97612125 -31.06318761 81.16718135 -31.07191467 85.35824585 C-31.09166631 95.48015152 -31.10174389 105.60205816 -31.11064246 115.72397828 C-31.11502771 120.49308477 -31.12039393 125.26219016 -31.12563133 130.03129578 C-31.14264272 145.88942484 -31.15713609 161.74755322 -31.16438007 177.60569 C-31.1662899 181.71987407 -31.16821024 185.83405814 -31.17016602 189.94824219 C-31.17064976 190.97077613 -31.1711335 191.99331006 -31.1716319 193.04682988 C-31.17992923 209.60500506 -31.20526155 226.16310793 -31.23774669 242.72125155 C-31.27084184 259.7292907 -31.28883108 276.73729314 -31.29202431 293.74536467 C-31.29418719 303.29143477 -31.30290325 312.83739944 -31.32848549 322.38343811 C-31.35022607 330.51464592 -31.35822643 338.64572268 -31.34851871 346.77695626 C-31.34398365 350.92239947 -31.34581364 355.06757247 -31.36528015 359.21297836 C-31.38298206 363.01561492 -31.38185786 366.81778556 -31.36638286 370.62042755 C-31.36290549 372.6317069 -31.37898046 374.64299153 -31.39598733 376.65420198 C-31.32449105 386.82835 -30.12107254 398.32125384 -22.64453125 405.94921875 C-14.53532167 412.19671134 -4.76502211 412.99412701 5.125 412.3125 C13.33274499 411.1843232 19.9271049 409.03845101 25.125 402.3125 C29.40699005 394.31029702 30.27320091 386.66510753 30.33032227 377.7487793 C30.34022186 376.79219925 30.35012146 375.8356192 30.36032104 374.85005188 C30.39184912 371.69563248 30.41665911 368.54119803 30.44140625 365.38671875 C30.46198328 363.19667678 30.48297995 361.00663871 30.50437927 358.81660461 C30.55952255 353.05780198 30.60896598 347.29896397 30.65722656 341.5401001 C30.70749814 335.66146706 30.76315467 329.78288529 30.81835938 323.90429688 C30.92584625 312.37374012 31.0268145 300.84313972 31.125 289.3125 C20.565 289.3125 10.005 289.3125 -0.875 289.3125 C-0.875 283.3725 -0.875 277.4325 -0.875 271.3125 C15.625 271.3125 32.125 271.3125 49.125 271.3125 C49.19288823 287.272848 49.24808104 303.23308039 49.28043652 319.19353104 C49.29586331 326.6053105 49.31687203 334.01699345 49.35131836 341.42871094 C49.38134973 347.89359187 49.40060539 354.35840286 49.40726548 360.82335162 C49.41115466 364.24213754 49.4202057 367.66072347 49.44219017 371.07944489 C49.46409829 374.90887611 49.46696127 378.73789859 49.46557617 382.56738281 C49.476362 383.68373108 49.48714783 384.80007935 49.4982605 385.95025635 C49.450437 398.24071907 46.95011764 409.75924265 38.625 419.125 C37.8 419.846875 36.975 420.56875 36.125 421.3125 C35.403125 421.993125 34.68125 422.67375 33.9375 423.375 C23.86393362 430.31456795 11.80992399 431.69525857 -0.125 431.625 C-1.13135498 431.61936035 -2.13770996 431.6137207 -3.17456055 431.60791016 C-16.18247488 431.3969089 -28.02243625 429.62037725 -37.90234375 420.42578125 C-48.94830239 408.53911539 -50.3360429 393.76878531 -50.25595093 378.11152649 C-50.2594154 376.6183773 -50.26418523 375.12523068 -50.27013266 373.63208932 C-50.28256351 369.56472793 -50.27650877 365.49757988 -50.26717401 361.4302181 C-50.2603513 357.03006374 -50.2708805 352.62994459 -50.27911377 348.22979736 C-50.29241809 339.62484011 -50.28958841 331.01996158 -50.28087585 322.41500131 C-50.274088 315.42025319 -50.27318733 308.42552707 -50.2764473 301.4307766 C-50.276907 300.43351979 -50.27736669 299.43626298 -50.27784032 298.40878626 C-50.27879954 296.38262651 -50.27977218 294.35646677 -50.2807581 292.33030703 C-50.28930198 273.35483395 -50.27949291 254.37940443 -50.263357 235.40393849 C-50.24994854 219.1321449 -50.25228821 202.86041549 -50.26611328 186.58862305 C-50.28217613 167.67426042 -50.2884846 148.7599359 -50.27927649 129.84556741 C-50.27832088 127.82797031 -50.27737776 125.81037321 -50.2764473 123.79277611 C-50.27598447 122.80017426 -50.27552164 121.80757242 -50.27504479 120.78489173 C-50.27245748 113.79931193 -50.27682018 106.81375636 -50.28388596 99.82818031 C-50.29230871 91.31427192 -50.29000423 82.80044649 -50.27404372 74.28654758 C-50.26617242 69.94502569 -50.26305002 65.603642 -50.27299118 61.2621212 C-50.28196186 57.28422763 -50.2769664 53.30659976 -50.26105852 49.32873013 C-50.25772082 47.8935559 -50.25938194 46.458359 -50.26668589 45.02319948 C-50.32951604 31.64658225 -48.27671952 21.36684425 -39.05859375 11.3359375 C-28.35776641 1.17555598 -14.10362455 -0.04123867 0 0 Z " fill="#21283C" transform="translate(67.875,6.6875)"/>
<path d="M0 0 C2.83058857 2.05217671 5.20158776 4.17608595 7.5 6.8125 C7.5 7.4725 7.5 8.1325 7.5 8.8125 C4.75 10.4375 4.75 10.4375 1.5 11.8125 C-0.4375 11.1875 -0.4375 11.1875 -2.5 9.8125 C-6.56885404 7.66291673 -8.64394545 6.68409182 -13.25 7.375 C-16.69464921 8.89859484 -17.90689633 9.44928114 -19.5 12.8125 C-20.90391606 18.92956281 -20.65967841 22.3647786 -17.5 27.8125 C-14.22221602 30.50496541 -10.59170806 30.17142176 -6.5 29.8125 C-2.77196535 28.06521222 -2.77196535 28.06521222 -0.5 24.8125 C-3.8 24.4825 -7.1 24.1525 -10.5 23.8125 C-10.5 21.5025 -10.5 19.1925 -10.5 16.8125 C-4.23 16.8125 2.04 16.8125 8.5 16.8125 C8.995 24.7325 8.995 24.7325 9.5 32.8125 C10.35464844 30.44191406 11.20929688 28.07132813 12.08984375 25.62890625 C12.91656186 23.34179624 13.7442439 21.05503728 14.57202148 18.76831055 C15.14822766 17.17492574 15.72342594 15.58117608 16.29760742 13.98706055 C17.1215572 11.70004895 17.94908456 9.41436011 18.77734375 7.12890625 C19.03466782 6.41223282 19.29199188 5.69555939 19.55711365 4.95716858 C21.38612829 -0.07362829 21.38612829 -0.07362829 22.5 -1.1875 C24.35287502 -1.25976502 26.20833878 -1.2713122 28.0625 -1.25 C29.07441406 -1.24097656 30.08632812 -1.23195312 31.12890625 -1.22265625 C31.91136719 -1.21105469 32.69382813 -1.19945312 33.5 -1.1875 C35.357523 3.88230655 37.20876512 8.95434496 39.05419922 14.02856445 C39.68300607 15.75478046 40.31353105 17.48037161 40.94580078 19.20532227 C41.85380185 21.6834382 42.75562011 24.16372842 43.65625 26.64453125 C44.0827887 27.80248955 44.0827887 27.80248955 44.51794434 28.98384094 C45.62596397 32.05123836 46.5 34.52456119 46.5 37.8125 C43.53 37.8125 40.56 37.8125 37.5 37.8125 C36.51 33.8525 36.51 33.8525 35.5 29.8125 C30.22 29.8125 24.94 29.8125 19.5 29.8125 C19.17 31.7925 18.84 33.7725 18.5 35.8125 C18.005 36.8025 18.005 36.8025 17.5 37.8125 C12.22 37.8125 6.94 37.8125 1.5 37.8125 C1.17 37.1525 0.84 36.4925 0.5 35.8125 C-0.304375 36.3075 -1.10875 36.8025 -1.9375 37.3125 C-7.69420946 39.73637767 -12.35966548 39.52594484 -18.25 37.5625 C-23.89137648 34.52483574 -27.19797537 31.91286527 -29.5 25.8125 C-31.16055189 19.15751898 -30.66536544 12.95108409 -27.5 6.8125 C-20.18686987 -1.56491102 -10.62509065 -3.60494147 0 0 Z M26.5 9.8125 C25.18 14.1025 23.86 18.3925 22.5 22.8125 C25.8 22.8125 29.1 22.8125 32.5 22.8125 C32.02343588 21.02013933 31.54366502 19.22863103 31.0625 17.4375 C30.66224609 15.94089844 30.66224609 15.94089844 30.25390625 14.4140625 C29.59815644 11.85832299 29.59815644 11.85832299 28.5 9.8125 C27.84 9.8125 27.18 9.8125 26.5 9.8125 Z " fill="#21273B" transform="translate(168.5,189.1875)"/>
<path d="M0 0 C1.2375 -0.020625 2.475 -0.04125 3.75 -0.0625 C4.44609375 -0.07410156 5.1421875 -0.08570313 5.859375 -0.09765625 C8 0 8 0 9.7890625 0.49609375 C13.0503408 1.23938863 16.29892368 1.14411538 19.625 1.125 C20.6459375 1.13080078 20.6459375 1.13080078 21.6875 1.13671875 C25.46957632 1.18405111 25.46957632 1.18405111 29 0 C31.6723621 -0.13415472 34.32250488 -0.04318541 37 0 C35.04783565 1.95216435 33.46800047 2.84826645 31 4 C31.78375 4.886875 32.5675 5.77375 33.375 6.6875 C37.82567826 11.72379383 38.4383788 16.75265784 38.32421875 23.27734375 C37.66619039 28.80319633 34.41357155 32.73303556 31 37 C33.97 37.495 33.97 37.495 37 38 C36.505 38.99 36.505 38.99 36 40 C35.31292969 39.91621094 34.62585938 39.83242187 33.91796875 39.74609375 C33.01691406 39.64425781 32.11585938 39.54242188 31.1875 39.4375 C30.29417969 39.33308594 29.40085937 39.22867188 28.48046875 39.12109375 C25.86624428 38.84341291 25.86624428 38.84341291 23 40 C18.18212138 40.30675632 13.71979659 40.00116897 9 39 C8.01 39.495 8.01 39.495 7 40 C4.6670134 40.04022391 2.33293334 40.04320247 0 40 C0 39.34 0 38.68 0 38 C2.97 37.505 2.97 37.505 6 37 C5.57847656 36.37351563 5.15695312 35.74703125 4.72265625 35.1015625 C4.17480469 34.28429687 3.62695312 33.46703125 3.0625 32.625 C2.51722656 31.81289062 1.97195313 31.00078125 1.41015625 30.1640625 C-1.76430171 25.29245666 -1.56914354 20.70681761 -1 15 C0.47169366 10.52663414 2.57649696 7.21750429 6 4 C4.02 3.01 2.04 2.02 0 1 C0 0.67 0 0.34 0 0 Z M17 8 C17.66 9.32 18.32 10.64 19 12 C19.33 10.68 19.66 9.36 20 8 C19.01 8 18.02 8 17 8 Z M24 10 C22.5393715 12.64738916 22 13.89448334 22 17 C21.01 17.495 21.01 17.495 20 18 C20.61758554 19.9606842 21.24431345 21.91849063 21.875 23.875 C22.22304688 24.96554688 22.57109375 26.05609375 22.9296875 27.1796875 C23.81175231 30.08522723 23.81175231 30.08522723 26 32 C29.7826823 25.94336275 29.7826823 25.94336275 31 19 C29.48213449 14.0083416 29.48213449 14.0083416 25.8125 10.5625 C25.214375 10.376875 24.61625 10.19125 24 10 Z M10 11.875 C6.67574136 15.40702481 6.66920673 18.04413454 6.70703125 22.734375 C7.13707281 26.06002977 8.56472081 27.77959838 11 30 C11.66 30 12.32 30 13 30 C14.25664978 27.09399739 15 25.20395416 15 22 C15.66 21.67 16.32 21.34 17 21 C15.68 17.37 14.36 13.74 13 10 C11.66467886 9.88600981 11.66467886 9.88600981 10 11.875 Z M18 27 C17.67 28.65 17.34 30.3 17 32 C18.32 31.67 19.64 31.34 21 31 C20.01 29.68 19.02 28.36 18 27 Z " fill="#1F2639" transform="translate(335,188)"/>
<path d="M0 0 C0.79535156 -0.02900391 1.59070313 -0.05800781 2.41015625 -0.08789062 C8.23965186 -0.1501102 11.61546028 0.90046633 16.375 4.3125 C18.77403429 8.8106893 18.64175678 12.42643813 17.375 17.3125 C15.4375 19.625 15.4375 19.625 13.375 21.3125 C12.715 21.9725 12.055 22.6325 11.375 23.3125 C12.096875 24.38371094 12.81875 25.45492187 13.5625 26.55859375 C14.5001205 27.9556483 15.43761397 29.35278812 16.375 30.75 C16.85195313 31.45705078 17.32890625 32.16410156 17.8203125 32.89257812 C18.27148438 33.56611328 18.72265625 34.23964844 19.1875 34.93359375 C19.60644531 35.5567749 20.02539062 36.17995605 20.45703125 36.82202148 C21.375 38.3125 21.375 38.3125 21.375 39.3125 C17.745 39.3125 14.115 39.3125 10.375 39.3125 C9.74851562 38.16910156 9.12203125 37.02570313 8.4765625 35.84765625 C7.65133002 34.3566112 6.82579342 32.86573445 6 31.375 C5.5875 30.62025391 5.175 29.86550781 4.75 29.08789062 C4.35039062 28.36923828 3.95078125 27.65058594 3.5390625 26.91015625 C3.17248535 26.24508057 2.8059082 25.58000488 2.42822266 24.89477539 C1.4518444 23.14393994 1.4518444 23.14393994 -0.625 22.3125 C-0.625 27.9225 -0.625 33.5325 -0.625 39.3125 C-3.595 39.3125 -6.565 39.3125 -9.625 39.3125 C-9.64964849 33.91903012 -9.66783531 28.52559275 -9.67993164 23.13208008 C-9.68497231 21.29581125 -9.69180477 19.45954646 -9.70043945 17.62329102 C-9.71251672 14.98973599 -9.71823081 12.35623384 -9.72265625 9.72265625 C-9.72781754 8.89661392 -9.73297882 8.07057159 -9.73829651 7.21949768 C-9.73849205 5.25013632 -9.68704152 3.28088386 -9.625 1.3125 C-7.48636948 -0.82613052 -2.94528927 0.03478688 0 0 Z M-0.625 8.3125 C-0.625 10.9525 -0.625 13.5925 -0.625 16.3125 C4.69670494 16.60812367 4.69670494 16.60812367 9.375 14.3125 C8.99595792 11.02174004 8.99595792 11.02174004 7.375 8.3125 C4.70441149 8.17134839 2.05067762 8.27002893 -0.625 8.3125 Z " fill="#21273A" transform="translate(307.625,187.6875)"/>
<path d="M0 0 C3.04221065 -0.08132642 6.0822238 -0.14065374 9.125 -0.1875 C9.9809375 -0.21263672 10.836875 -0.23777344 11.71875 -0.26367188 C17.77593276 -0.33356245 22.19846724 0.39167639 26.8125 4.6875 C29.36937524 9.6666781 29.42989406 13.6198138 27.8125 18.8125 C25.75668819 22.42789318 24.18488459 24.31278034 20.19921875 25.56640625 C17.66642106 26.06576778 15.32981531 26.09644494 12.75 26.0625 C10.39875 26.0315625 10.39875 26.0315625 8 26 C8 30.29 8 34.58 8 39 C5.36 39 2.72 39 0 39 C-0.9035545 35.14127497 -1.12878459 31.5567999 -1.1328125 27.59765625 C-1.13410156 26.37755859 -1.13539063 25.15746094 -1.13671875 23.90039062 C-1.13091797 22.00063477 -1.13091797 22.00063477 -1.125 20.0625 C-1.12886719 18.79986328 -1.13273437 17.53722656 -1.13671875 16.23632812 C-1.13542969 15.01494141 -1.13414062 13.79355469 -1.1328125 12.53515625 C-1.13168457 11.425354 -1.13055664 10.31555176 -1.12939453 9.17211914 C-1.00147436 6.03614408 -0.58450307 3.08068525 0 0 Z M8 8 C8 11.3 8 14.6 8 18 C9.423125 18.061875 10.84625 18.12375 12.3125 18.1875 C13.11300781 18.22230469 13.91351563 18.25710937 14.73828125 18.29296875 C17.06623163 18.18265942 17.06623163 18.18265942 18.7734375 16.6484375 C20.48891217 14.34292696 20.35928679 12.80243693 20 10 C18.18806994 7.75675164 18.18806994 7.75675164 15.6171875 7.8046875 C14.71226562 7.82789063 13.80734375 7.85109375 12.875 7.875 C11.26625 7.91625 9.6575 7.9575 8 8 Z " fill="#21273B" transform="translate(268,188)"/>
<path d="M0 0 C7.59 0 15.18 0 23 0 C23 2.64 23 5.28 23 8 C18.38 8 13.76 8 9 8 C9 10.64 9 13.28 9 16 C13.29 16 17.58 16 22 16 C22.04241723 18.33294775 22.04092937 20.66702567 22 23 C21 24 21 24 18.27734375 24.09765625 C17.17519531 24.08605469 16.07304687 24.07445312 14.9375 24.0625 C13.28041016 24.04896484 13.28041016 24.04896484 11.58984375 24.03515625 C10.73519531 24.02355469 9.88054687 24.01195312 9 24 C9 26.64 9 29.28 9 32 C13.62 32 18.24 32 23 32 C23 34.31 23 36.62 23 39 C15.41 39 7.82 39 0 39 C0 26.13 0 13.26 0 0 Z " fill="#21273A" transform="translate(241,188)"/>
<path d="M0 0 C8.91 0 17.82 0 27 0 C27 2.64 27 5.28 27 8 C24.03 8 21.06 8 18 8 C18 18.23 18 28.46 18 39 C15.03 39 12.06 39 9 39 C9 28.77 9 18.54 9 8 C6.03 8 3.06 8 0 8 C0 5.36 0 2.72 0 0 Z " fill="#21273A" transform="translate(213,188)"/>
<path d="M0 0 C2.58861097 2.13560405 3.71069819 3.63614862 4.41015625 6.93359375 C4.70502368 10.93320581 4.27950541 12.61362487 1.875 15.9375 C-1.35208593 18.25258338 -3.03760154 19 -7 19 C-10.97472063 17.47126129 -12.61853665 16.57219503 -15 13 C-15.68873936 8.65133171 -15.81177729 5.11969282 -13.1875 1.5 C-8.90712089 -1.43511711 -4.87439875 -1.402493 0 0 Z M-10 5 C-11.08805146 7.3566226 -11.08805146 7.3566226 -11 10 C-10.00965774 12.40383995 -10.00965774 12.40383995 -8 14 C-5.5 14.66666667 -5.5 14.66666667 -3 14 C-0.90235835 12.48105194 -0.90235835 12.48105194 0 10 C-0.40847192 6.77443477 -0.40847192 6.77443477 -2 4 C-5.1014314 2.34590325 -7.25419932 2.9169788 -10 5 Z " fill="#202537" transform="translate(171,239)"/>
<path d="M0 0 C3.29447199 0.0419678 4.42906591 0.1423117 7.25 2 C8.97358865 4.77272956 9.1691161 6.10172599 8.6875 9.3125 C7.6875 11.625 7.6875 11.625 6.6875 13.3125 C7.1825 13.93125 7.6775 14.55 8.1875 15.1875 C9.6875 17.3125 9.6875 17.3125 9.6875 19.3125 C7.4375 19.6875 7.4375 19.6875 4.6875 19.3125 C2.375 16.3125 2.375 16.3125 0.6875 13.3125 C0.3575 15.2925 0.0275 17.2725 -0.3125 19.3125 C-1.9625 19.3125 -3.6125 19.3125 -5.3125 19.3125 C-5.33933987 16.33327407 -5.35926037 13.35428705 -5.375 10.375 C-5.38337891 9.52486328 -5.39175781 8.67472656 -5.40039062 7.79882812 C-5.40361328 6.98994141 -5.40683594 6.18105469 -5.41015625 5.34765625 C-5.41539307 4.5987915 -5.42062988 3.84992676 -5.42602539 3.07836914 C-5.2013906 -0.41578878 -3.01524978 0.0937639 0 0 Z M-0.3125 4.3125 C-0.3125 5.6325 -0.3125 6.9525 -0.3125 8.3125 C1.0075 7.9825 2.3275 7.6525 3.6875 7.3125 C3.3575 6.3225 3.0275 5.3325 2.6875 4.3125 C1.6975 4.3125 0.7075 4.3125 -0.3125 4.3125 Z " fill="#1F2537" transform="translate(201.3125,237.6875)"/>
<path d="M0 0 C1.32 0 2.64 0 4 0 C4.33 4.62 4.66 9.24 5 14 C6.32 14 7.64 14 9 14 C9.33 9.38 9.66 4.76 10 0 C11.65 0 13.3 0 15 0 C15.13572155 2.39774745 15.23436868 4.78775245 15.3125 7.1875 C15.35439453 7.86103516 15.39628906 8.53457031 15.43945312 9.22851562 C15.5357936 13.17847507 15.14314895 14.81818162 12.671875 17.95703125 C10 20 10 20 6.9375 20.5 C3.6986557 19.94870735 2.27094592 19.35505503 0 17 C-1.17064161 13.62579772 -1.13364016 10.35928434 -1.125 6.8125 C-1.12757813 5.74644531 -1.13015625 4.68039063 -1.1328125 3.58203125 C-1 1 -1 1 0 0 Z " fill="#212638" transform="translate(251,238)"/>
<path d="M0 0 C9 0 9 0 11.5625 1.125 C13.63717157 3.83109336 13.41519209 5.67846329 13 9 C12.01 10.485 12.01 10.485 11 12 C12.32 14.31 13.64 16.62 15 19 C12.1875 19.3125 12.1875 19.3125 9 19 C7.125 16.5 7.125 16.5 6 14 C5.67 15.65 5.34 17.3 5 19 C3.35 19 1.7 19 0 19 C0 12.73 0 6.46 0 0 Z M5 4 C5 5.32 5 6.64 5 8 C6.32 7.67 7.64 7.34 9 7 C8.67 6.01 8.34 5.02 8 4 C7.01 4 6.02 4 5 4 Z " fill="#212639" transform="translate(234,238)"/>
<path d="M0 0 C2.4375 1.875 2.4375 1.875 4 4 C4 4.66 4 5.32 4 6 C2.35 6.33 0.7 6.66 -1 7 C-1.33 6.34 -1.66 5.68 -2 5 C-2.99 5.33 -3.98 5.66 -5 6 C-4.43410156 6.27714844 -3.86820312 6.55429688 -3.28515625 6.83984375 C-2.55167969 7.20207031 -1.81820313 7.56429687 -1.0625 7.9375 C0.03384766 8.47697266 0.03384766 8.47697266 1.15234375 9.02734375 C3 10 3 10 4 11 C4.375 13.875 4.375 13.875 4 17 C1.9375 18.9375 1.9375 18.9375 -1 20 C-4.56411603 19.87709945 -6.99914302 19.7102856 -9.9375 17.625 C-11 16 -11 16 -11 13 C-9.35 13 -7.7 13 -6 13 C-6 13.66 -6 14.32 -6 15 C-4.68 15 -3.36 15 -2 15 C-2 14.34 -2 13.68 -2 13 C-2.56589844 12.75765625 -3.13179688 12.5153125 -3.71484375 12.265625 C-4.44832031 11.93046875 -5.18179687 11.5953125 -5.9375 11.25 C-6.66839844 10.92515625 -7.39929688 10.6003125 -8.15234375 10.265625 C-10 9 -10 9 -10.81640625 7.046875 C-11 5 -11 5 -10 2 C-6.2794164 -0.48038907 -4.40203429 -0.46337203 0 0 Z " fill="#202536" transform="translate(279,238)"/>
<path d="M0 0 C1.32 0 2.64 0 4 0 C4.33 4.95 4.66 9.9 5 15 C6.32 14.67 7.64 14.34 9 14 C9.33 9.38 9.66 4.76 10 0 C11.65 0 13.3 0 15 0 C15.13572155 2.39774745 15.23436868 4.78775245 15.3125 7.1875 C15.3753418 8.19780273 15.3753418 8.19780273 15.43945312 9.22851562 C15.53478623 13.13717292 15.12013978 14.84078361 12.7421875 17.9921875 C10 20 10 20 7.83203125 20.33984375 C2.22222222 19.22222222 2.22222222 19.22222222 0 17 C-0.14517744 14.0906442 -0.18630796 11.280054 -0.125 8.375 C-0.11597656 7.57320312 -0.10695312 6.77140625 -0.09765625 5.9453125 C-0.07406223 3.96341477 -0.03819065 1.98167019 0 0 Z " fill="#202537" transform="translate(178,238)"/>
<path d="M0 0 C1.65 0 3.3 0 5 0 C5.28875 0.639375 5.5775 1.27875 5.875 1.9375 C6.82823451 4.15206079 6.82823451 4.15206079 9 5 C9.66 3.35 10.32 1.7 11 0 C12.65 0 14.3 0 16 0 C15.01461122 2.65296979 14.05762201 4.91702431 12.4375 7.25 C10.44507706 11.06159171 10.26826514 14.7540104 10 19 C8.35 19 6.7 19 5 19 C4.97421875 18.34773438 4.9484375 17.69546875 4.921875 17.0234375 C4.53219207 11.01877775 3.60720775 7.77082316 0 3 C0 2.01 0 1.02 0 0 Z " fill="#202536" transform="translate(139,238)"/>
<path d="M0 0 C4.29 0 8.58 0 13 0 C13 1.32 13 2.64 13 4 C11.68 4 10.36 4 9 4 C9 8.95 9 13.9 9 19 C7.35 19 5.7 19 4 19 C4 14.05 4 9.1 4 4 C2.68 4 1.36 4 0 4 C0 2.68 0 1.36 0 0 Z " fill="#212738" transform="translate(284,238)"/>
<path d="M0 0 C4.62 0 9.24 0 14 0 C14 1.32 14 2.64 14 4 C12.35 4 10.7 4 9 4 C9 8.95 9 13.9 9 19 C7.68 19 6.36 19 5 19 C5 14.05 5 9.1 5 4 C3.35 4 1.7 4 0 4 C0 2.68 0 1.36 0 0 Z " fill="#22263A" transform="translate(218,238)"/>
<path d="M0 0 C0.66 0.66 1.32 1.32 2 2 C5.12814514 2.24360073 5.12814514 2.24360073 8.625 2.125 C9.81351563 2.10695312 11.00203125 2.08890625 12.2265625 2.0703125 C13.59941406 2.03550781 13.59941406 2.03550781 15 2 C15.66 3.98 16.32 5.96 17 8 C16.278125 7.525625 15.55625 7.05125 14.8125 6.5625 C10.78513299 4.32507388 8.41085337 3.68961226 3.875 4.6875 C0.76762289 6.1060852 -0.25804989 7.12578231 -2 10 C-2.66 10.99 -3.32 11.98 -4 13 C-5.39195915 8.82412255 -3.82323219 6.86525224 -2 3 C-2.66 2.67 -3.32 2.34 -4 2 C-2.68 1.34 -1.36 0.68 0 0 Z " fill="#1B2131" transform="translate(151,192)"/>
<path d="M0 0 C-2.92410006 1.53167146 -5.73257626 2.91279661 -8.875 3.9375 C-15.53410927 6.20159715 -20.78117427 9.30305684 -26 14 C-23.14141115 7.62314796 -18.17326903 4.27126881 -11.8125 1.6875 C-3.85141159 -1.28380386 -3.85141159 -1.28380386 0 0 Z " fill="#1F2231" transform="translate(52,9)"/>
<path d="M0 0 C0.66 0.66 1.32 1.32 2 2 C1.65066406 2.4846875 1.30132812 2.969375 0.94140625 3.46875 C-2.42361956 8.42572853 -3.67952384 12.01777843 -4 18 C-4.66 17.34 -5.32 16.68 -6 16 C-5.7413482 9.82220117 -4.55276419 4.40100538 0 0 Z " fill="#1E2431" transform="translate(144,193)"/>
<path d="M0 0 C1.485 0.7115625 1.485 0.7115625 3 1.4375 C6.99189495 3.16813748 10.68114582 3.62115314 15 4 C15 4.66 15 5.32 15 6 C15.66 6 16.32 6 17 6 C17.33 5.34 17.66 4.68 18 4 C18.33 4.99 18.66 5.98 19 7 C12.5432551 7.57393288 6.7613469 5.98035073 1 3 C0.67 2.01 0.34 1.02 0 0 Z " fill="#1F2432" transform="translate(37,430)"/>
<path d="M0 0 C4.29 0.99 8.58 1.98 13 3 C13 3.99 13 4.98 13 6 C12.01 6 11.02 6 10 6 C9.01 6.495 9.01 6.495 8 7 C8 6.34 8 5.68 8 5 C7.01 5 6.02 5 5 5 C5 4.34 5 3.68 5 3 C2.03 2.505 2.03 2.505 -1 2 C-0.67 1.34 -0.34 0.68 0 0 Z " fill="#1E2232" transform="translate(49,416)"/>
<path d="M0 0 C0.66 0 1.32 0 2 0 C4.66077956 9.51372259 4.66077956 9.51372259 2.625 14.125 C2.08875 15.07375 1.5525 16.0225 1 17 C0.01 17 -0.98 17 -2 17 C-1.2575 15.9790625 -1.2575 15.9790625 -0.5 14.9375 C2.01373472 10.0147695 1.27060931 5.24126342 0 0 Z " fill="#1F2631" transform="translate(293,193)"/>
<path d="M0 0 C0.66 0 1.32 0 2 0 C2 1.65 2 3.3 2 5 C-2.62 5 -7.24 5 -12 5 C-12 4.67 -12 4.34 -12 4 C-11.38511719 3.95101562 -10.77023438 3.90203125 -10.13671875 3.8515625 C-9.32847656 3.77679688 -8.52023438 3.70203125 -7.6875 3.625 C-6.88699219 3.55539063 -6.08648437 3.48578125 -5.26171875 3.4140625 C-2.72775559 3.10435574 -2.72775559 3.10435574 0 1 C0 0.67 0 0.34 0 0 Z " fill="#1E2531" transform="translate(115,162)"/>
<path d="M0 0 C-2.68841859 2.25245881 -4.64641875 3.88213958 -8 5 C-7.67 3.35 -7.34 1.7 -7 0 C-3.98968256 -0.93423645 -3.13349732 -1.04449911 0 0 Z " fill="#1D2332" transform="translate(104,428)"/>
<path d="M0 0 C2 2 2 2 2.3125 4.5 C2.209375 5.325 2.10625 6.15 2 7 C1.01 7.66 0.02 8.32 -1 9 C-1.625 5.625 -1.625 5.625 -2 2 C-1.34 1.34 -0.68 0.68 0 0 Z " fill="#22283B" transform="translate(173,242)"/>
<path d="M0 0 C3.72940389 1.24313463 4.84656811 2.76985216 7 6 C6.67 6.99 6.34 7.98 6 9 C4.99712471 7.68969568 3.99777175 6.37669473 3 5.0625 C2.443125 4.33160156 1.88625 3.60070312 1.3125 2.84765625 C0 1 0 1 0 0 Z " fill="#202333" transform="translate(24,418)"/>
<path d="M0 0 C2.64 0 5.28 0 8 0 C8 1.65 8 3.3 8 5 C5.33333333 3.66666667 2.66666667 2.33333333 0 1 C0 0.67 0 0.34 0 0 Z " fill="#1B212E" transform="translate(335,188)"/>
<path d="M0 0 C0.66 0.99 1.32 1.98 2 3 C1.67 3.66 1.34 4.32 1 5 C1.66 5.33 2.32 5.66 3 6 C2.01 6.33 1.02 6.66 0 7 C0 8.65 0 10.3 0 12 C-0.33 12 -0.66 12 -1 12 C-1.08159574 7.83861737 -0.98248524 4.0527516 0 0 Z " fill="#1E222E" transform="translate(19,34)"/>
<path d="M0 0 C0.99 0 1.98 0 3 0 C2.34 3.96 1.68 7.92 1 12 C0.67 12 0.34 12 0 12 C0 8.04 0 4.08 0 0 Z " fill="#25293C" transform="translate(190,238)"/>
<path d="M0 0 C0.66 0.33 1.32 0.66 2 1 C-0.8125 3.0625 -0.8125 3.0625 -4 5 C-4.99 4.67 -5.98 4.34 -7 4 C-4.61426621 2.10786631 -2.92824652 0.97608217 0 0 Z " fill="#1E2330" transform="translate(152,188)"/>
</svg>
