<svg width="254" height="305" viewBox="0 0 254 305" fill="none" xmlns="http://www.w3.org/2000/svg">
<path d="M40.8551 190.348H74.003V265.738C74.003 284.433 66.3299 297.611 43.0036 297.611H38.7067C15.3804 297.611 7.40039 284.433 7.40039 262.674V36.1968C7.40039 20.5671 15.0735 7.38916 38.7067 7.38916H43.0036C66.0229 7.38916 74.003 20.5671 74.003 39.2614V114.652H62.3398V44.1649C62.3398 30.6804 59.2706 19.0348 40.5482 19.0348C22.1328 19.0348 19.0635 30.6804 19.0635 44.1649V260.835C19.0635 274.319 22.4397 285.965 40.8551 285.965C59.2706 285.965 62.3398 274.319 62.3398 260.835V201.687H40.8551V190.348Z" fill="white"/>
<path d="M99.5699 163.472L95.4914 169.928V175.861H92.907V169.988L88.8027 163.472H91.6534L94.1863 167.691L96.7279 163.472L99.5699 163.472ZM106.808 176.033C103.159 176.033 100.463 173.546 100.463 169.662C100.463 165.77 103.159 163.301 106.808 163.301C110.449 163.301 113.145 165.77 113.145 169.662C113.145 173.546 110.449 176.033 106.808 176.033ZM106.808 173.675C108.946 173.675 110.586 172.174 110.586 169.662C110.586 167.159 108.946 165.667 106.808 165.667C104.67 165.667 103.03 167.159 103.03 169.662C103.03 172.174 104.67 173.675 106.808 173.675ZM120.108 176.033C117.386 176.033 115.257 174.644 115.257 171.523V163.472H117.833V171.171C117.833 173.058 118.837 173.761 120.108 173.761C121.388 173.761 122.401 173.049 122.401 171.171V163.472H124.977V171.523C124.977 174.644 122.839 176.033 120.108 176.033ZM134.482 175.861L131.253 170.408H130.506V175.861H127.93V163.472H132.43C135.237 163.472 136.422 165.127 136.422 167.176C136.422 168.839 135.478 169.92 133.795 170.28L137.53 175.861L134.482 175.861ZM130.506 165.607V168.565H132.026C133.4 168.565 133.958 167.982 133.958 167.09C133.958 166.207 133.4 165.607 132.026 165.607L130.506 165.607ZM151.182 163.472V165.736H148.237V175.861H145.687V165.736H142.724V163.472H151.182ZM159.682 175.861L156.454 170.408H155.707V175.861H153.131V163.472H157.63C160.438 163.472 161.623 165.127 161.623 167.176C161.623 168.839 160.678 169.92 158.995 170.28L162.73 175.861L159.682 175.861ZM155.707 165.607V168.565H157.227C158.6 168.565 159.159 167.982 159.159 167.09C159.159 166.207 158.6 165.607 157.227 165.607L155.707 165.607ZM169.213 176.033C166.491 176.033 164.362 174.644 164.362 171.523V163.472H166.938V171.171C166.938 173.058 167.942 173.761 169.213 173.761C170.492 173.761 171.506 173.049 171.506 171.171V163.472H174.082V171.523C174.082 174.644 171.944 176.033 169.213 176.033ZM181.157 176.033C178.495 176.033 176.417 174.755 176.039 172.432L178.701 171.823C178.873 173.212 179.894 173.932 181.26 173.932C182.307 173.932 183.14 173.469 183.131 172.423C183.123 171.257 181.749 170.888 180.238 170.426C178.418 169.86 176.469 169.191 176.469 166.91C176.469 164.604 178.357 163.301 180.848 163.301C183.028 163.301 185.226 164.184 185.725 166.559L183.234 167.176C183.003 165.942 182.17 165.402 181.002 165.402C179.963 165.402 179.079 165.83 179.079 166.85C179.079 167.802 180.298 168.119 181.706 168.539C183.578 169.105 185.793 169.825 185.793 172.295C185.793 174.927 183.587 176.033 181.157 176.033ZM195.367 163.472V165.736H192.422V175.861H189.872V165.736H186.909V163.472H195.367Z" fill="white"/>
<path d="M101.791 155.912C94.3103 155.912 88.8027 150.753 88.8027 142.674C88.8027 134.488 94.4359 129.311 102.06 129.311C107.066 129.311 111.21 131.514 113.47 135.401L108.752 137.909C107.389 135.258 104.949 133.986 102.06 133.986C97.5754 133.986 94.2027 137.067 94.2027 142.549C94.2027 147.833 97.3602 151.237 102.258 151.237C105.577 151.237 108.627 149.589 109.362 145.809H102.276V141.492H114.457V155.554H110.223V151.971C108.555 154.425 105.756 155.912 101.791 155.912ZM134.734 155.554L132.85 150.215H121.961L120.077 155.554H114.569L124.113 129.669H130.697L140.241 155.554H134.734ZM123.539 145.719H131.271L127.414 134.738L123.539 145.719ZM156.518 129.669V134.398H150.364V155.554H145.036V134.398H138.847V129.669H156.518ZM172.973 134.398H163.357V140.274H171.879V144.949H163.357V150.807H172.973V155.554H157.939V129.669H172.973V134.398ZM186.648 129.669C191.725 129.669 194.882 133.431 194.882 138.035C194.882 142.746 191.725 146.275 186.648 146.275H181.248V155.554H175.866V129.669L186.648 129.669ZM185.751 141.778C188.442 141.778 189.698 140.292 189.698 137.963C189.698 135.724 188.442 134.165 185.751 134.165H181.248V141.778H185.751ZM210.441 155.554L203.696 144.161H202.135V155.554H196.753V129.669H206.153C212.02 129.669 214.495 133.126 214.495 137.408C214.495 140.883 212.522 143.14 209.006 143.892L216.81 155.554H210.441ZM202.135 134.129V140.309H205.31C208.181 140.309 209.347 139.091 209.347 137.228C209.347 135.383 208.181 134.129 205.31 134.129H202.135Z" fill="white"/>
<path d="M221.354 129.731C221.34 129.718 221.33 129.702 221.325 129.684C221.319 129.666 221.319 129.647 221.324 129.629C221.329 129.61 221.338 129.594 221.352 129.58C221.366 129.567 221.383 129.558 221.401 129.553C223.653 129.028 225.755 129.356 227.706 130.535C228.606 131.078 229.387 131.684 230.05 132.353C230.605 132.914 231.175 133.702 231.76 134.72C232.675 136.312 233.339 137.782 233.752 139.131C234.473 141.479 234.892 142.87 235.009 143.303C235.17 143.891 235.409 144.627 235.728 145.512C236.045 146.39 236.329 147.453 236.766 148.439C237.268 149.573 237.69 150.391 238.032 150.896C238.647 151.802 239.788 153.111 240.858 153.797C242.341 154.743 243.96 155.298 245.715 155.461C245.733 155.463 245.75 155.471 245.762 155.484C245.775 155.497 245.782 155.514 245.783 155.532C245.785 155.55 245.78 155.568 245.769 155.583C245.759 155.598 245.743 155.608 245.726 155.613C243.965 156.054 242.322 155.961 240.796 155.333C239.123 154.645 237.645 153.574 236.473 152.074C235.723 151.111 235.248 150.434 235.048 150.043C234.781 149.522 234.458 148.858 234.078 148.052C233.867 147.604 233.615 146.903 233.322 145.95C232.651 143.77 231.814 140.792 231.055 138.519C230.593 137.133 230.12 136.053 229.636 135.279C228.996 134.257 228.343 133.381 227.678 132.653C226.117 130.944 223.712 129.976 221.448 129.751C221.394 129.746 221.363 129.739 221.354 129.731Z" fill="white"/>
<path d="M235.357 140.554C235.354 140.563 235.348 140.571 235.341 140.577C235.333 140.582 235.324 140.585 235.314 140.585C235.305 140.585 235.295 140.582 235.287 140.577C235.279 140.571 235.273 140.563 235.27 140.554L234.16 137.38C234.116 137.256 234.119 137.12 234.168 136.997C234.782 135.458 235.746 133.713 236.908 132.554C237.622 131.841 238.256 131.292 238.811 130.907C240.734 129.57 243.277 128.992 245.616 129.533C245.667 129.546 245.7 129.569 245.717 129.603C245.723 129.615 245.726 129.628 245.726 129.642C245.726 129.655 245.723 129.668 245.717 129.68C245.711 129.692 245.702 129.702 245.691 129.71C245.681 129.718 245.668 129.724 245.655 129.726C245.276 129.796 244.683 129.906 243.875 130.055C243.722 130.083 243.222 130.258 242.375 130.58C241.013 131.099 239.662 132.245 238.877 133.265C237.638 134.872 236.682 136.648 236.01 138.595C235.853 139.05 235.635 139.704 235.357 140.554ZM233.555 129.965C234.912 129.965 236.227 130.151 237.499 130.523C237.512 130.527 237.524 130.534 237.534 130.544C237.543 130.553 237.549 130.566 237.552 130.579C237.555 130.592 237.554 130.606 237.55 130.619C237.546 130.632 237.538 130.643 237.527 130.652C236.231 131.75 235.157 133.035 234.306 134.507C234.29 134.536 234.266 134.559 234.237 134.576C234.208 134.593 234.175 134.601 234.141 134.602C234.113 134.603 233.917 134.603 233.553 134.602H232.965C232.931 134.601 232.899 134.593 232.87 134.576C232.841 134.559 232.817 134.536 232.8 134.507C231.95 133.034 230.877 131.748 229.58 130.65C229.57 130.642 229.562 130.63 229.558 130.617C229.553 130.605 229.553 130.591 229.556 130.577C229.558 130.564 229.565 130.552 229.574 130.542C229.584 130.532 229.595 130.525 229.608 130.521C230.882 130.151 232.198 129.965 233.555 129.965ZM225.119 142.749C225.066 145.52 226.364 148.059 228.488 149.647C228.523 149.672 228.546 149.71 228.555 149.752C228.563 149.794 228.556 149.838 228.535 149.875C227.791 151.166 226.813 152.222 225.6 153.045C225.561 153.071 225.514 153.084 225.467 153.082C225.42 153.08 225.375 153.063 225.339 153.034C222.169 150.495 220.454 146.704 220.532 142.661C220.61 138.62 222.468 134.897 225.734 132.481C225.771 132.453 225.817 132.438 225.864 132.438C225.911 132.438 225.957 132.453 225.995 132.481C227.176 133.349 228.113 134.442 228.806 135.761C228.825 135.799 228.83 135.842 228.82 135.884C228.81 135.925 228.785 135.962 228.75 135.986C227.65 136.745 226.748 137.754 226.117 138.93C225.485 140.106 225.143 141.415 225.119 142.749Z" fill="white"/>
<path d="M246.597 142.675C246.677 146.799 244.966 150.5 241.734 153.048C241.701 153.074 241.659 153.089 241.617 153.09C241.574 153.09 241.532 153.077 241.498 153.052C240.281 152.189 239.318 151.142 238.61 149.912C238.587 149.873 238.58 149.826 238.589 149.781C238.599 149.737 238.624 149.697 238.661 149.67C240.855 148.08 242.088 145.458 242.036 142.763C241.983 140.068 240.651 137.496 238.397 135.992C238.359 135.967 238.331 135.928 238.32 135.883C238.309 135.839 238.315 135.792 238.336 135.751C238.997 134.496 239.918 133.413 241.099 132.502C241.133 132.476 241.174 132.462 241.217 132.461C241.259 132.46 241.301 132.473 241.336 132.498C244.666 134.92 246.518 138.551 246.597 142.675ZM221.353 155.674C221.329 155.666 221.309 155.651 221.296 155.63C221.283 155.609 221.277 155.584 221.28 155.56C221.283 155.535 221.294 155.512 221.312 155.495C221.33 155.477 221.353 155.466 221.378 155.464C223.628 155.242 225.671 154.483 227.305 152.891C228.043 152.172 228.618 151.521 229.027 150.938C229.476 150.301 230.004 149.265 230.613 147.83C230.762 147.478 230.945 146.936 231.161 146.203C231.226 145.979 231.396 145.428 231.67 144.55C231.671 144.547 231.673 144.545 231.676 144.543L231.738 144.496C231.749 144.488 231.762 144.483 231.775 144.481C231.788 144.479 231.802 144.48 231.814 144.485C231.827 144.489 231.839 144.496 231.848 144.506C231.858 144.515 231.865 144.527 231.869 144.539C232.215 145.655 232.561 146.697 232.907 147.664C233.048 148.059 232.932 148.275 232.774 148.615C232.172 149.911 231.635 150.864 231.164 151.474C230.549 152.268 229.676 153.273 228.862 153.891C227.286 155.089 225.128 155.977 223.103 155.908C222.524 155.888 221.915 155.865 221.353 155.674ZM233.538 151.261C233.831 151.261 234.163 151.247 234.534 151.219C234.581 151.215 234.627 151.225 234.668 151.247C234.709 151.269 234.743 151.303 234.765 151.343C235.583 152.821 236.795 153.991 238.115 154.968C238.128 154.978 238.138 154.99 238.144 155.005C238.15 155.02 238.152 155.036 238.15 155.052C238.147 155.067 238.141 155.082 238.131 155.095C238.121 155.107 238.108 155.116 238.093 155.122C236.635 155.694 235.113 155.891 233.537 155.891C231.962 155.891 230.44 155.692 228.982 155.12C228.967 155.115 228.954 155.105 228.944 155.093C228.934 155.081 228.928 155.066 228.926 155.05C228.923 155.034 228.926 155.018 228.932 155.004C228.938 154.989 228.948 154.976 228.96 154.967C230.28 153.989 231.494 152.819 232.312 151.343C232.334 151.302 232.368 151.269 232.409 151.247C232.451 151.225 232.497 151.215 232.544 151.219C232.914 151.247 233.246 151.261 233.538 151.261Z" fill="white"/>
</svg>
